<?xml version="1.0" encoding="UTF-8"?>
<svg id="Layer_1" xmlns="http://www.w3.org/2000/svg" version="1.1" viewBox="0 0 576 792">
  <!-- Generator: Adobe Illustrator 29.0.1, SVG Export Plug-In . SVG Version: 2.1.0 Build 192)  -->
  <defs>
    <style>
      .st0 {
        fill: #dc7fb3;
      }
    </style>
  </defs>
  <path class="st0" d="M536.42,429c5.7-13.27,8.75-27.23,8.75-41.63,0-29.12-12.43-56.42-34.11-79.91,2.6-5.51,3.98-11.29,3.98-17.25,0-38.29-57.06-69.33-127.44-69.33-22.08,0-42.86,3.06-60.96,8.43-28.45-8.44-60.85-13.23-95.24-13.23-113.03,0-204.66,51.62-204.66,115.3,0,13.96,4.41,27.34,12.47,39.73-.86,5.34-1.3,10.76-1.3,16.25s.41,10.39,1.19,15.49c-8,12.34-12.37,25.66-12.37,39.56,0,63.68,91.63,115.3,204.66,115.3,19.53,0,38.41-1.54,56.3-4.42,27.52,14.02,62.21,22.39,99.91,22.39,89.45,0,161.96-47.08,161.96-105.16,0-14.75-4.68-28.79-13.13-41.53Z"/>
</svg>